<mxfile host="app.diagrams.net" agent="Mozilla/5.0 (Macintosh; Intel Mac OS X 10.15; rv:131.0) Gecko/20100101 Firefox/131.0" version="24.7.5">
  <diagram name="Page-1" id="XpHMgZYQFwpPxX4nyE8_">
    <mxGraphModel dx="1064" dy="676" grid="1" gridSize="10" guides="1" tooltips="1" connect="1" arrows="1" fold="1" page="1" pageScale="1" pageWidth="827" pageHeight="1169" math="0" shadow="0">
      <root>
        <mxCell id="0" />
        <mxCell id="1" parent="0" />
        <mxCell id="HQTV7izBnlizLq9InDce-21" value="" style="rounded=0;whiteSpace=wrap;html=1;fillColor=none;strokeColor=#000000;dashed=1;dashPattern=12 12;" vertex="1" parent="1">
          <mxGeometry x="420" y="200" width="270" height="160" as="geometry" />
        </mxCell>
        <mxCell id="HQTV7izBnlizLq9InDce-1" value="&lt;div&gt;MAC&lt;/div&gt;&lt;div&gt;(CONV2D)&lt;br&gt;&lt;/div&gt;" style="whiteSpace=wrap;html=1;aspect=fixed;" vertex="1" parent="1">
          <mxGeometry x="200" y="150" width="120" height="120" as="geometry" />
        </mxCell>
        <mxCell id="HQTV7izBnlizLq9InDce-2" value="Input" style="rounded=0;whiteSpace=wrap;html=1;fillColor=#D9D9FF;strokeColor=default;gradientColor=none;fillStyle=auto;" vertex="1" parent="1">
          <mxGeometry x="60" y="160" width="100" height="40" as="geometry" />
        </mxCell>
        <mxCell id="HQTV7izBnlizLq9InDce-4" value="Weights" style="rounded=0;whiteSpace=wrap;html=1;fillColor=#D9D9FF;strokeColor=#000000;" vertex="1" parent="1">
          <mxGeometry x="60" y="220" width="100" height="40" as="geometry" />
        </mxCell>
        <mxCell id="HQTV7izBnlizLq9InDce-5" value="" style="endArrow=classic;html=1;rounded=0;exitX=1;exitY=0.5;exitDx=0;exitDy=0;entryX=0;entryY=0.25;entryDx=0;entryDy=0;" edge="1" parent="1" source="HQTV7izBnlizLq9InDce-2" target="HQTV7izBnlizLq9InDce-1">
          <mxGeometry width="50" height="50" relative="1" as="geometry">
            <mxPoint x="170" y="310" as="sourcePoint" />
            <mxPoint x="220" y="260" as="targetPoint" />
          </mxGeometry>
        </mxCell>
        <mxCell id="HQTV7izBnlizLq9InDce-37" value="/" style="edgeLabel;html=1;align=center;verticalAlign=middle;resizable=0;points=[];" vertex="1" connectable="0" parent="HQTV7izBnlizLq9InDce-5">
          <mxGeometry x="-0.0881" y="1" relative="1" as="geometry">
            <mxPoint as="offset" />
          </mxGeometry>
        </mxCell>
        <mxCell id="HQTV7izBnlizLq9InDce-6" value="" style="endArrow=classic;html=1;rounded=0;exitX=1;exitY=0.5;exitDx=0;exitDy=0;entryX=0;entryY=0.25;entryDx=0;entryDy=0;" edge="1" parent="1">
          <mxGeometry width="50" height="50" relative="1" as="geometry">
            <mxPoint x="160" y="239.8" as="sourcePoint" />
            <mxPoint x="200" y="239.8" as="targetPoint" />
          </mxGeometry>
        </mxCell>
        <mxCell id="HQTV7izBnlizLq9InDce-36" value="/" style="edgeLabel;html=1;align=center;verticalAlign=middle;resizable=0;points=[];" vertex="1" connectable="0" parent="HQTV7izBnlizLq9InDce-6">
          <mxGeometry x="-0.0643" relative="1" as="geometry">
            <mxPoint as="offset" />
          </mxGeometry>
        </mxCell>
        <mxCell id="HQTV7izBnlizLq9InDce-7" value="Bias" style="rounded=0;whiteSpace=wrap;html=1;" vertex="1" parent="1">
          <mxGeometry x="440" y="210" width="60" height="60" as="geometry" />
        </mxCell>
        <mxCell id="HQTV7izBnlizLq9InDce-8" value="" style="endArrow=classic;html=1;rounded=0;exitX=0.992;exitY=0.663;exitDx=0;exitDy=0;exitPerimeter=0;entryX=0;entryY=0.5;entryDx=0;entryDy=0;" edge="1" parent="1">
          <mxGeometry width="50" height="50" relative="1" as="geometry">
            <mxPoint x="319.52" y="210" as="sourcePoint" />
            <mxPoint x="360" y="210" as="targetPoint" />
          </mxGeometry>
        </mxCell>
        <mxCell id="HQTV7izBnlizLq9InDce-38" value="/" style="edgeLabel;html=1;align=center;verticalAlign=middle;resizable=0;points=[];" vertex="1" connectable="0" parent="HQTV7izBnlizLq9InDce-8">
          <mxGeometry x="-0.0987" relative="1" as="geometry">
            <mxPoint as="offset" />
          </mxGeometry>
        </mxCell>
        <mxCell id="HQTV7izBnlizLq9InDce-10" value="Bias FIFO" style="rounded=0;whiteSpace=wrap;html=1;fillColor=#D9D9FF;strokeColor=#000000;" vertex="1" parent="1">
          <mxGeometry x="430" y="310" width="80" height="40" as="geometry" />
        </mxCell>
        <mxCell id="HQTV7izBnlizLq9InDce-11" value="" style="endArrow=classic;html=1;rounded=0;" edge="1" parent="1">
          <mxGeometry width="50" height="50" relative="1" as="geometry">
            <mxPoint x="470" y="310" as="sourcePoint" />
            <mxPoint x="470" y="270" as="targetPoint" />
          </mxGeometry>
        </mxCell>
        <mxCell id="HQTV7izBnlizLq9InDce-42" value="_" style="edgeLabel;html=1;align=center;verticalAlign=middle;resizable=0;points=[];labelBackgroundColor=none;" vertex="1" connectable="0" parent="HQTV7izBnlizLq9InDce-11">
          <mxGeometry x="-0.2286" relative="1" as="geometry">
            <mxPoint as="offset" />
          </mxGeometry>
        </mxCell>
        <mxCell id="HQTV7izBnlizLq9InDce-12" value="ReLU" style="rounded=0;whiteSpace=wrap;html=1;" vertex="1" parent="1">
          <mxGeometry x="540" y="210" width="60" height="60" as="geometry" />
        </mxCell>
        <mxCell id="HQTV7izBnlizLq9InDce-13" value="" style="endArrow=classic;html=1;rounded=0;exitX=1;exitY=0.5;exitDx=0;exitDy=0;entryX=0;entryY=0.25;entryDx=0;entryDy=0;" edge="1" parent="1">
          <mxGeometry width="50" height="50" relative="1" as="geometry">
            <mxPoint x="500" y="239.66000000000003" as="sourcePoint" />
            <mxPoint x="540" y="239.66000000000003" as="targetPoint" />
          </mxGeometry>
        </mxCell>
        <mxCell id="HQTV7izBnlizLq9InDce-41" value="/" style="edgeLabel;html=1;align=center;verticalAlign=middle;resizable=0;points=[];labelBackgroundColor=none;" vertex="1" connectable="0" parent="HQTV7izBnlizLq9InDce-13">
          <mxGeometry x="-0.1595" relative="1" as="geometry">
            <mxPoint as="offset" />
          </mxGeometry>
        </mxCell>
        <mxCell id="HQTV7izBnlizLq9InDce-14" value="" style="endArrow=classic;html=1;rounded=0;exitX=1;exitY=0.5;exitDx=0;exitDy=0;entryX=0;entryY=0.25;entryDx=0;entryDy=0;" edge="1" parent="1">
          <mxGeometry width="50" height="50" relative="1" as="geometry">
            <mxPoint x="600" y="239.66000000000003" as="sourcePoint" />
            <mxPoint x="640" y="239.66000000000003" as="targetPoint" />
          </mxGeometry>
        </mxCell>
        <mxCell id="HQTV7izBnlizLq9InDce-47" value="/" style="edgeLabel;html=1;align=center;verticalAlign=middle;resizable=0;points=[];labelBackgroundColor=none;" vertex="1" connectable="0" parent="HQTV7izBnlizLq9InDce-14">
          <mxGeometry x="-0.0881" y="-1" relative="1" as="geometry">
            <mxPoint as="offset" />
          </mxGeometry>
        </mxCell>
        <mxCell id="HQTV7izBnlizLq9InDce-15" value="Output" style="text;html=1;align=center;verticalAlign=middle;whiteSpace=wrap;rounded=0;" vertex="1" parent="1">
          <mxGeometry x="820" y="200" width="60" height="20" as="geometry" />
        </mxCell>
        <mxCell id="HQTV7izBnlizLq9InDce-16" value="&lt;div&gt;MAC Clip&lt;br&gt;&lt;/div&gt;" style="rounded=0;whiteSpace=wrap;html=1;" vertex="1" parent="1">
          <mxGeometry x="360" y="160" width="40" height="100" as="geometry" />
        </mxCell>
        <mxCell id="HQTV7izBnlizLq9InDce-18" value="" style="endArrow=classic;html=1;rounded=0;exitX=1;exitY=0.5;exitDx=0;exitDy=0;entryX=0;entryY=0.25;entryDx=0;entryDy=0;" edge="1" parent="1">
          <mxGeometry width="50" height="50" relative="1" as="geometry">
            <mxPoint x="400" y="239.66000000000003" as="sourcePoint" />
            <mxPoint x="440" y="239.66000000000003" as="targetPoint" />
          </mxGeometry>
        </mxCell>
        <mxCell id="HQTV7izBnlizLq9InDce-40" value="/" style="edgeLabel;html=1;align=center;verticalAlign=middle;resizable=0;points=[];labelBackgroundColor=none;" vertex="1" connectable="0" parent="HQTV7izBnlizLq9InDce-18">
          <mxGeometry x="-0.1833" y="-1" relative="1" as="geometry">
            <mxPoint as="offset" />
          </mxGeometry>
        </mxCell>
        <mxCell id="HQTV7izBnlizLq9InDce-19" value="&lt;div&gt;PP&lt;/div&gt;&lt;div&gt;Clip&lt;br&gt;&lt;/div&gt;" style="rounded=0;whiteSpace=wrap;html=1;" vertex="1" parent="1">
          <mxGeometry x="640" y="210" width="40" height="60" as="geometry" />
        </mxCell>
        <mxCell id="HQTV7izBnlizLq9InDce-22" value="Post-Processing" style="text;html=1;align=center;verticalAlign=middle;whiteSpace=wrap;rounded=0;" vertex="1" parent="1">
          <mxGeometry x="590" y="320" width="60" height="30" as="geometry" />
        </mxCell>
        <mxCell id="HQTV7izBnlizLq9InDce-27" value="Selector" style="shape=trapezoid;perimeter=trapezoidPerimeter;whiteSpace=wrap;html=1;fixedSize=1;rotation=90;horizontal=1;" vertex="1" parent="1">
          <mxGeometry x="700" y="190" width="100" height="40" as="geometry" />
        </mxCell>
        <mxCell id="HQTV7izBnlizLq9InDce-28" value="" style="endArrow=classic;html=1;rounded=0;exitX=1;exitY=0.5;exitDx=0;exitDy=0;entryX=0.795;entryY=1.004;entryDx=0;entryDy=0;entryPerimeter=0;" edge="1" parent="1" source="HQTV7izBnlizLq9InDce-19" target="HQTV7izBnlizLq9InDce-27">
          <mxGeometry width="50" height="50" relative="1" as="geometry">
            <mxPoint x="700" y="280" as="sourcePoint" />
            <mxPoint x="750" y="230" as="targetPoint" />
          </mxGeometry>
        </mxCell>
        <mxCell id="HQTV7izBnlizLq9InDce-68" value="/" style="edgeLabel;html=1;align=center;verticalAlign=middle;resizable=0;points=[];" vertex="1" connectable="0" parent="HQTV7izBnlizLq9InDce-28">
          <mxGeometry x="-0.1535" relative="1" as="geometry">
            <mxPoint as="offset" />
          </mxGeometry>
        </mxCell>
        <mxCell id="HQTV7izBnlizLq9InDce-29" value="" style="endArrow=classic;html=1;rounded=0;exitX=1;exitY=0.25;exitDx=0;exitDy=0;entryX=0.25;entryY=1;entryDx=0;entryDy=0;" edge="1" parent="1" source="HQTV7izBnlizLq9InDce-16" target="HQTV7izBnlizLq9InDce-27">
          <mxGeometry width="50" height="50" relative="1" as="geometry">
            <mxPoint x="700" y="280" as="sourcePoint" />
            <mxPoint x="750" y="230" as="targetPoint" />
          </mxGeometry>
        </mxCell>
        <mxCell id="HQTV7izBnlizLq9InDce-48" value="/" style="edgeLabel;html=1;align=center;verticalAlign=middle;resizable=0;points=[];" vertex="1" connectable="0" parent="HQTV7izBnlizLq9InDce-29">
          <mxGeometry x="0.0658" relative="1" as="geometry">
            <mxPoint as="offset" />
          </mxGeometry>
        </mxCell>
        <mxCell id="HQTV7izBnlizLq9InDce-30" value="" style="endArrow=classic;html=1;rounded=0;exitX=0.5;exitY=0;exitDx=0;exitDy=0;" edge="1" parent="1" source="HQTV7izBnlizLq9InDce-27">
          <mxGeometry width="50" height="50" relative="1" as="geometry">
            <mxPoint x="800" y="235" as="sourcePoint" />
            <mxPoint x="830" y="210" as="targetPoint" />
          </mxGeometry>
        </mxCell>
        <mxCell id="HQTV7izBnlizLq9InDce-50" value="/" style="edgeLabel;html=1;align=center;verticalAlign=middle;resizable=0;points=[];" vertex="1" connectable="0" parent="HQTV7izBnlizLq9InDce-30">
          <mxGeometry x="0.0242" relative="1" as="geometry">
            <mxPoint as="offset" />
          </mxGeometry>
        </mxCell>
        <mxCell id="HQTV7izBnlizLq9InDce-51" value="8" style="text;html=1;align=center;verticalAlign=middle;resizable=0;points=[];autosize=1;strokeColor=none;fillColor=none;" vertex="1" parent="1">
          <mxGeometry x="165" y="150" width="30" height="30" as="geometry" />
        </mxCell>
        <mxCell id="HQTV7izBnlizLq9InDce-53" value="8" style="text;html=1;align=center;verticalAlign=middle;resizable=0;points=[];autosize=1;strokeColor=none;fillColor=none;" vertex="1" parent="1">
          <mxGeometry x="165" y="210" width="30" height="30" as="geometry" />
        </mxCell>
        <mxCell id="HQTV7izBnlizLq9InDce-54" value="16" style="text;html=1;align=center;verticalAlign=middle;resizable=0;points=[];autosize=1;strokeColor=none;fillColor=none;" vertex="1" parent="1">
          <mxGeometry x="317" y="181" width="40" height="30" as="geometry" />
        </mxCell>
        <mxCell id="HQTV7izBnlizLq9InDce-56" value="8" style="text;html=1;align=center;verticalAlign=middle;resizable=0;points=[];autosize=1;strokeColor=none;fillColor=none;" vertex="1" parent="1">
          <mxGeometry x="561" y="155" width="30" height="30" as="geometry" />
        </mxCell>
        <mxCell id="HQTV7izBnlizLq9InDce-63" value="16" style="text;html=1;align=center;verticalAlign=middle;resizable=0;points=[];autosize=1;strokeColor=none;fillColor=none;" vertex="1" parent="1">
          <mxGeometry x="499" y="213" width="40" height="30" as="geometry" />
        </mxCell>
        <mxCell id="HQTV7izBnlizLq9InDce-64" value="16" style="text;html=1;align=center;verticalAlign=middle;resizable=0;points=[];autosize=1;strokeColor=none;fillColor=none;" vertex="1" parent="1">
          <mxGeometry x="435" y="282" width="40" height="30" as="geometry" />
        </mxCell>
        <mxCell id="HQTV7izBnlizLq9InDce-65" value="16" style="text;html=1;align=center;verticalAlign=middle;resizable=0;points=[];autosize=1;strokeColor=none;fillColor=none;" vertex="1" parent="1">
          <mxGeometry x="598" y="213" width="40" height="30" as="geometry" />
        </mxCell>
        <mxCell id="HQTV7izBnlizLq9InDce-66" value="8" style="text;html=1;align=center;verticalAlign=middle;resizable=0;points=[];autosize=1;strokeColor=none;fillColor=none;" vertex="1" parent="1">
          <mxGeometry x="687" y="210" width="30" height="30" as="geometry" />
        </mxCell>
        <mxCell id="HQTV7izBnlizLq9InDce-69" value="8" style="text;html=1;align=center;verticalAlign=middle;resizable=0;points=[];autosize=1;strokeColor=none;fillColor=none;" vertex="1" parent="1">
          <mxGeometry x="786" y="181" width="30" height="30" as="geometry" />
        </mxCell>
        <mxCell id="HQTV7izBnlizLq9InDce-73" value="16" style="text;html=1;align=center;verticalAlign=middle;whiteSpace=wrap;rounded=0;fillColor=default;" vertex="1" parent="1">
          <mxGeometry x="407" y="220" width="18" height="14" as="geometry" />
        </mxCell>
      </root>
    </mxGraphModel>
  </diagram>
</mxfile>
